HIERARCHY
ROOT Hips
{
	OFFSET 0.00000 0.00000 0.00000
	CHANNELS 6 Xposition Yposition Zposition Zrotation Yrotation Xrotation 
	JOINT LHipJoint
	{
		OFFSET 0 0 0
		CHANNELS 3 Zrotation Yrotation Xrotation
		JOINT LeftHip
		{
			OFFSET 1.85742 -1.74412 1.01653
			CHANNELS 3 Zrotation Yrotation Xrotation
			JOINT LeftKnee
			{
				OFFSET 2.54803 -7.00067 0.00000
				CHANNELS 3 Zrotation Yrotation Xrotation
				JOINT LeftAnkle
				{
					OFFSET 2.51202 -6.90173 0.00000
					CHANNELS 3 Zrotation Yrotation Xrotation
					JOINT LeftToe
					{
						OFFSET 0.17547 -0.48209 1.64281
						CHANNELS 3 Zrotation Yrotation Xrotation
						End Site
						{
							OFFSET 0.00000 -0.00000 0.86587
						}
					}
				}
			}
		}
	}
	JOINT RHipJoint
	{
		OFFSET 0 0 0
		CHANNELS 3 Zrotation Yrotation Xrotation
		JOINT RightHip
		{
			OFFSET -1.95533 -1.74413 1.01654
			CHANNELS 3 Zrotation Yrotation Xrotation
			JOINT RightKnee
			{
				OFFSET -2.49465 -6.85400 0.00000
				CHANNELS 3 Zrotation Yrotation Xrotation
				JOINT RightAnkle
				{
					OFFSET -2.54783 -7.00010 0.00000
					CHANNELS 3 Zrotation Yrotation Xrotation
					JOINT RightToe
					{
						OFFSET -0.18513 -0.50864 1.69288
						CHANNELS 3 Zrotation Yrotation Xrotation
						End Site
						{
							OFFSET -0.00000 -0.00000 0.89242
						}
					}
				}
			}
		}
	}
	JOINT lowerback
	{
		OFFSET 0 0 0
		CHANNELS 3 Zrotation Yrotation Xrotation
		JOINT Chest
		{
			OFFSET 0.02173 2.16290 -0.15998
			CHANNELS 3 Zrotation Yrotation Xrotation
			JOINT Chest2
			{
				OFFSET 0.00940 2.17323 -0.00467
				CHANNELS 3 Zrotation Yrotation Xrotation
				JOINT lowerneck
				{
					OFFSET 0 0 0
					CHANNELS 3 Zrotation Yrotation Xrotation
					JOINT Neck
					{
						OFFSET 0.01475 1.85823 0.31113
						CHANNELS 3 Zrotation Yrotation Xrotation
						JOINT Head
						{
							OFFSET 0.01902 1.88783 -0.37187
							CHANNELS 3 Zrotation Yrotation Xrotation
							End Site
							{
								OFFSET 0.00489 1.93211 -0.16169
							}
						}
					}
				}
				JOINT LeftCollar
				{
					OFFSET 0 0 0
					CHANNELS 3 Zrotation Yrotation Xrotation
					JOINT LeftShoulder
					{
						OFFSET 3.34199 1.32384 -0.07862
CHANNELS 3 Zrotation Xrotation Yrotation
						JOINT LeftElbow
						{
OFFSET 0 -5.279500 0.000000
CHANNELS 3 Zrotation Xrotation Yrotation
							JOINT LeftWrist
							{
OFFSET 0 -3.535040 0.000000
CHANNELS 3 Zrotation Xrotation Yrotation
								JOINT lhand
								{
									OFFSET 0 0 0
CHANNELS 3 Zrotation Xrotation Yrotation
									JOINT LFingers
									{
OFFSET 0 -0.667950 0.000000
CHANNELS 3 Zrotation Xrotation Yrotation
										End Site
										{
OFFSET 0 -0.538520 0.000000
										}
									}
								}
								JOINT LThumb
								{
OFFSET 0 0.000000 0.000000
CHANNELS 3 Zrotation Xrotation Yrotation
									End Site
									{
OFFSET 0 -0.546740 0.546740
									}
								}
							}
						}
					}
				}
				JOINT RightCollar
				{
					OFFSET 0 0 0
					CHANNELS 3 Zrotation Yrotation Xrotation
					JOINT RightShoulder
					{
						OFFSET -3.16149 1.45719 -0.50507
CHANNELS 3 Zrotation Xrotation Yrotation
						JOINT RightElbow
						{
OFFSET 0 -5.250350 0.000000
CHANNELS 3 Zrotation Xrotation Yrotation
							JOINT RightWrist
							{
OFFSET 0 -3.588840 0.000000
CHANNELS 3 Zrotation Xrotation Yrotation
								JOINT rhand
								{
									OFFSET 0 0 0
CHANNELS 3 Zrotation Xrotation Yrotation
									JOINT RFingers
									{
OFFSET 0 -0.779240 0.000000
CHANNELS 3 Zrotation Xrotation Yrotation
										End Site
										{
OFFSET 0 -0.628240 0.000000
										}
									}
								}
								JOINT RThumb
								{
OFFSET 0 0.000000 0.000000
CHANNELS 3 Zrotation Xrotation Yrotation
									End Site
									{
OFFSET 0 -0.637830 0.637830
									}
								}
							}
						}
					}
				}
			}
		}
	}
}
MOTION
Frames: 14
Frame Time: .0083333
-5.7796 17.6905 0.7102 -3.5219 54.5171 1.6335 0.0000 0.0000 0.0000 -15.6088 -14.7530 -2.2744 1.0809 6.6083 18.5599 0.5584 8.6302 -19.8041 2.1740 -9.2194 -26.4841 0.0000 0.0000 0.0000 16.2679 14.6140 6.3871 0.0000 0.0000 -0.0000 0.7676 -15.3384 -6.9782 -1.2499 7.0883 -19.9772 0.1840 1.0889 2.1157 -0.1311 1.4707 -2.9234 -0.3226 0.7292 -4.1882 -0.1518 -0.7623 -22.7807 2.8627 -1.7700 32.3849 0.9199 -0.2024 15.1806 -0.0000 -0.0000 0.0000 4.2679 9.6491 -26.8848 17.0058 -26.8654 4.09 35.7468 -1.9629 -55.7202 0.0 0.0 0.0 -7.1250 0.0 0.0 174.9836 1.1248 -4.936 -0.0000 -0.0000 0.0000 -5.3798 10.3994 19.9761 -19.2837 -29.7696 -5.1709 -20.4724 -5.9221 -19.2131 0.0 0.0 0.0 7.1250 0.0 -0.0 5.0357 9.6382 4.1379
-5.7870 17.6951 0.7275 -3.4845 54.6128 1.7235 0.0000 0.0000 0.0000 -15.5202 -14.5816 -2.4780 1.0874 6.6274 18.6160 0.5641 8.3743 -19.6318 2.5302 -9.8926 -28.6297 0.0000 0.0000 0.0000 16.2990 14.5319 6.3311 0.0000 -0.0000 0.0000 0.7658 -15.3276 -7.0590 -1.2622 7.1217 -20.0765 0.1321 1.0598 2.0435 -0.1151 1.4301 -2.9136 -0.2731 0.7112 -4.1390 -0.1570 -0.7411 -22.8526 2.7990 -1.7148 32.3999 0.9050 -0.1891 15.2015 0.0000 0.0000 0.0000 4.1339 9.5111 -27.1882 17.4089 -27.3937 4.2738 36.1142 -1.9465 -55.5566 0.0 0.0 0.0 -7.1250 0.0 0.0 175.1619 1.0822 -4.7629 0.0000 0.0000 0.0000 -5.3879 10.3285 19.2655 -18.7721 -29.1346 -4.9194 -20.7053 -5.4664 -18.6841 0.0 0.0 0.0 7.1250 0.0 -0.0 4.8483 10.16 3.9315
-5.7937 17.6959 0.7470 -3.6058 54.6775 1.6395 0.0000 0.0000 0.0000 -15.3422 -14.3899 -2.6194 1.0930 6.6438 18.6644 0.5719 8.1387 -19.5027 2.4955 -9.8297 -28.4269 0.0000 0.0000 0.0000 16.4486 14.4729 6.3223 0.0000 -0.0000 0.0000 0.7658 -15.3233 -7.0006 -1.2984 7.2190 -20.3659 0.1564 1.0306 2.0095 -0.0759 1.3937 -2.9153 -0.2436 0.6930 -4.1219 0.0368 -0.6881 -22.8068 2.5497 -1.6237 32.3047 0.7826 -0.1661 15.1395 -0.0000 0.0000 0.0000 4.0498 9.4672 -27.4137 17.8421 -27.9545 4.475 35.9776 -2.3146 -55.4493 0.0 0.0 0.0 -7.1250 0.0 0.0 175.1544 0.9432 -4.7824 -0.0000 0.0000 0.0000 -5.4095 10.3057 18.7076 -18.2446 -28.4692 -4.6652 -20.8539 -5.0252 -18.6047 0.0 0.0 0.0 7.1250 0.0 -0.0 4.7461 10.2232 3.842
-5.7986 17.6938 0.7664 -3.7391 54.6960 1.5095 0.0000 0.0000 0.0000 -15.1812 -14.1962 -2.6704 1.0945 6.6483 18.6774 0.5736 8.0235 -19.4193 2.5638 -9.9530 -28.8247 0.0000 0.0000 0.0000 16.6147 14.4473 6.3645 0.0000 0.0000 -0.0000 0.7663 -15.3242 -6.9472 -1.3183 7.2721 -20.5241 0.1930 1.0349 1.9972 -0.0442 1.4022 -2.9260 -0.2319 0.6967 -4.1260 0.0584 -0.6823 -22.7669 2.5230 -1.6123 32.3437 0.7706 -0.1614 15.1478 0.0000 -0.0000 0.0000 4.0166 9.5299 -27.7411 18.3547 -28.609 4.7179 35.8081 -2.7358 -55.3522 0.0 0.0 0.0 -7.1250 0.0 0.0 175.1327 0.8038 -4.816 0.0000 -0.0000 0.0000 -5.4131 10.3495 18.1786 -17.7285 -27.8081 -4.4218 -20.8068 -4.6511 -18.7078 0.0 0.0 0.0 7.1250 0.0 -0.0 4.7837 10.1215 3.8825
-5.8048 17.6932 0.7829 -3.6319 54.7452 1.5903 0.0000 0.0000 0.0000 -15.1801 -14.0551 -2.7292 1.0954 6.6509 18.6851 0.5681 7.9631 -19.3085 2.6622 -10.1270 -29.3891 0.0000 0.0000 0.0000 16.6139 14.3905 6.3845 0.0000 -0.0000 0.0000 0.7662 -15.3252 -6.9707 -1.3132 7.2586 -20.4838 0.1149 1.0522 1.9965 -0.0680 1.4214 -2.9377 -0.2138 0.7083 -4.1390 -0.4757 -0.8135 -23.0049 3.1401 -1.8170 32.7512 1.0917 -0.2127 15.4120 -0.0000 -0.0000 0.0000 4.0012 9.4954 -28.0982 18.8608 -29.2454 4.9627 35.9717 -2.7143 -55.5002 0.0 0.0 0.0 -7.1250 0.0 0.0 175.1346 0.9882 -4.7982 -0.0000 -0.0000 0.0000 -5.3526 10.3894 17.4814 -17.2302 -27.1603 -4.1919 -20.767 -4.2514 -18.6698 0.0 0.0 0.0 7.1250 0.0 -0.0 4.8072 10.1667 3.8973
-5.8134 17.6937 0.7985 -3.5411 54.8601 1.6586 0.0000 0.0000 0.0000 -15.1671 -13.9988 -2.7841 1.0949 6.6496 18.6812 0.5619 7.8947 -19.1820 2.7280 -10.2411 -29.7610 0.0000 0.0000 0.0000 16.6177 14.2706 6.3854 0.0000 0.0000 -0.0000 0.7669 -15.3319 -6.9801 -1.3212 7.2798 -20.5470 0.0495 1.0536 1.9983 -0.0852 1.4198 -2.9073 -0.1945 0.7092 -4.1095 -0.8942 -0.9078 -23.2262 3.6140 -1.9628 32.9245 1.3418 -0.2515 15.5617 0.0000 0.0000 0.0000 3.9747 9.3189 -28.3954 19.3404 -29.8395 5.1992 36.1198 -2.5079 -55.8787 0.0 0.0 0.0 -7.1250 0.0 0.0 175.0501 1.3796 -4.8476 0.0000 0.0000 0.0000 -5.3009 10.3217 16.6881 -16.7441 -26.5193 -3.9724 -20.8111 -3.7565 -18.4097 0.0 0.0 0.0 7.1250 0.0 -0.0 4.7609 10.4336 3.8336
-5.8228 17.6944 0.8134 -3.5992 54.9953 1.5962 0.0000 0.0000 0.0000 -15.0498 -13.8738 -2.8707 1.0944 6.6479 18.6763 0.5628 7.7323 -19.0499 2.7513 -10.2811 -29.8919 0.0000 0.0000 0.0000 16.7133 14.1338 6.3825 0.0000 0.0000 -0.0000 0.7669 -15.3312 -6.9709 -1.3328 7.3105 -20.6387 0.0819 1.0444 2.0079 -0.0787 1.4085 -2.8665 -0.2049 0.7026 -4.0720 -1.0037 -0.9225 -23.4902 3.7279 -1.9859 33.0390 1.4086 -0.2549 15.6810 -0.0000 -0.0000 0.0000 3.9952 9.1441 -28.7526 19.7994 -30.3998 5.4294 35.9936 -2.6156 -56.0625 0.0 0.0 0.0 -7.1250 0.0 0.0 174.9441 1.5111 -4.9403 -0.0000 -0.0000 0.0000 -5.2742 10.2443 15.9586 -16.2922 -25.9153 -3.7728 -20.779 -3.411 -18.4837 0.0 0.0 0.0 7.1250 0.0 -0.0 4.7869 10.3603 3.8618
-5.8335 17.6942 0.8278 -3.6864 55.1390 1.4990 0.0000 0.0000 0.0000 -14.9121 -13.7128 -2.9812 1.0986 6.6602 18.7125 0.5632 7.5553 -18.9011 2.8360 -10.4248 -30.3635 0.0000 0.0000 0.0000 16.8303 13.9859 6.3888 0.0000 0.0000 -0.0000 0.7661 -15.3291 -7.0464 -1.2824 7.1762 -20.2386 0.1209 1.0177 2.0540 -0.0610 1.3750 -2.8651 -0.2076 0.6850 -4.0964 -0.8335 -0.8790 -23.7675 3.5175 -1.9198 33.1730 1.3059 -0.2336 15.8017 0.0000 -0.0000 0.0000 4.0266 9.0103 -29.0891 20.1704 -30.8471 5.6185 35.7117 -2.9984 -55.9635 0.0 0.0 0.0 -7.1250 0.0 0.0 174.8874 1.3384 -5.0119 0.0000 -0.0000 0.0000 -5.2529 10.2766 15.3971 -15.8770 -25.3536 -3.5931 -20.7514 -3.2268 -18.9399 0.0 0.0 0.0 7.1250 0.0 -0.0 4.8357 9.8858 3.9482
-5.8458 17.6922 0.8444 -3.8718 55.3056 1.2952 0.0000 0.0000 0.0000 -14.7071 -13.6221 -3.0622 1.1076 6.6865 18.7899 0.5682 7.3647 -18.7926 2.9247 -10.5721 -30.8501 0.0000 0.0000 0.0000 17.0266 13.8040 6.4326 0.0000 0.0000 -0.0000 0.7644 -15.3176 -7.1079 -1.2400 7.0611 -19.8965 0.1634 0.9744 2.1135 -0.0022 1.3211 -2.8609 -0.1689 0.6576 -4.1264 -1.0103 -0.9248 -23.5273 3.6428 -1.9555 32.9501 1.3771 -0.2578 15.6443 0.0000 0.0000 0.0000 3.9949 8.8923 -29.3695 20.5150 -31.2579 5.7962 35.8645 -3.2571 -55.6438 0.0 0.0 0.0 -7.1250 0.0 0.0 175.0492 1.0889 -4.8742 0.0000 0.0000 0.0000 -5.2504 10.378 14.9703 -15.5293 -24.8782 -3.4455 -20.9149 -2.9928 -19.0798 0.0 0.0 0.0 7.1250 0.0 -0.0 4.7393 9.7165 3.8851
-5.8583 17.6903 0.8620 -4.1260 55.4700 1.0291 0.0000 0.0000 0.0000 -14.4554 -13.5696 -3.1312 1.1180 6.7169 18.8794 0.5803 7.1442 -18.7384 2.9512 -10.6156 -30.9941 0.0000 0.0000 0.0000 17.2651 13.6246 6.4776 0.0000 -0.0000 0.0000 0.7597 -15.2734 -7.1056 -1.2506 7.0900 -19.9822 0.2199 0.9293 2.1455 0.0725 1.2655 -2.8247 -0.1207 0.6294 -4.1076 -1.1864 -0.9620 -23.2926 3.8071 -1.9936 32.7403 1.4643 -0.2767 15.4966 -0.0000 -0.0000 0.0000 3.9622 8.7525 -29.6001 20.8771 -31.6846 5.9852 36.0776 -3.4087 -55.3916 0.0 0.0 0.0 -7.1250 0.0 0.0 175.2080 0.9198 -4.7311 -0.0000 -0.0000 0.0000 -5.2391 10.3985 14.4202 -15.2003 -24.4245 -3.3083 -20.9534 -2.5176 -18.8978 0.0 0.0 0.0 7.1250 0.0 -0.0 4.7014 9.902 3.8362
-5.8707 17.6889 0.8772 -4.2711 55.5868 0.8814 0.0000 0.0000 0.0000 -14.2978 -13.5949 -3.1953 1.1305 6.7531 18.9860 0.5810 7.1025 -18.7113 3.0277 -10.7398 -31.4074 0.0000 0.0000 0.0000 17.4125 13.5039 6.4860 0.0000 -0.0000 0.0000 0.7540 -15.2264 -7.1770 -1.2392 7.0589 -19.8900 0.2251 0.8758 2.1389 0.1239 1.1959 -2.8062 -0.0664 0.5954 -4.0859 -1.2095 -0.9327 -23.1717 3.8196 -1.9425 32.6625 1.4814 -0.2583 15.4306 0.0000 0.0000 0.0000 3.9458 8.6707 -29.6727 21.2428 -32.1106 6.1785 35.8075 -3.6076 -55.4673 0.0 0.0 0.0 -7.1250 0.0 0.0 175.0917 0.9098 -4.8476 0.0000 0.0000 0.0000 -5.2515 10.3769 13.9161 -14.8799 -23.9785 -3.177 -20.599 -1.9342 -18.7632 0.0 0.0 0.0 7.1250 0.0 -0.0 4.9229 10.0916 3.9994
-5.8833 17.6867 0.8883 -4.2443 55.6923 0.8984 0.0000 0.0000 0.0000 -14.2642 -13.7035 -3.2615 1.1446 6.7935 19.1051 0.5799 7.1226 -18.7157 3.0801 -10.8236 -31.6871 0.0000 0.0000 0.0000 17.4328 13.4008 6.4673 0.0000 -0.0000 0.0000 0.7516 -15.2087 -7.2440 -1.2356 7.0490 -19.8606 0.1814 0.8468 2.1530 0.1259 1.1556 -2.8169 -0.0379 0.5767 -4.1059 -1.0933 -0.8986 -23.1977 3.6885 -1.8915 32.7320 1.4174 -0.2402 15.4641 0.0000 -0.0000 0.0000 3.9928 8.6476 -29.8629 21.6068 -32.5298 6.3731 35.5369 -3.7917 -55.7109 0.0 0.0 0.0 -7.1250 0.0 0.0 174.9182 1.0553 -5.0072 0.0000 -0.0000 0.0000 -5.2511 10.4576 13.63 -14.6652 -23.6776 -3.0902 -20.4099 -1.5831 -18.5958 0.0 0.0 0.0 7.1250 0.0 -0.0 5.0352 10.2922 4.0707
-5.8963 17.6842 0.8980 -4.2941 55.8330 0.8524 0.0000 0.0000 0.0000 -14.1700 -13.7948 -3.3436 1.1569 6.8289 19.2093 0.5851 7.0336 -18.6988 3.0614 -10.7938 -31.5876 0.0000 0.0000 0.0000 17.5004 13.2657 6.4358 0.0000 0.0000 -0.0000 0.7509 -15.2001 -7.2196 -1.2771 7.1619 -20.1960 0.2410 0.8602 2.2183 0.1111 1.1757 -2.8258 -0.0890 0.5845 -4.1506 -1.1341 -0.9524 -23.2996 3.7447 -1.9766 32.8154 1.4341 -0.2702 15.5316 0.0000 0.0000 0.0000 4.1236 8.5358 -30.2618 21.8965 -32.8598 6.5296 35.2769 -4.055 -55.9045 0.0 0.0 0.0 -7.1250 0.0 0.0 174.7652 1.1592 -5.1495 0.0000 0.0000 0.0000 -5.1789 10.5889 13.3522 -14.5240 -23.4788 -3.0338 -20.5992 -1.3586 -18.2089 0.0 0.0 0.0 7.1250 0.0 -0.0 4.8866 10.6722 3.9117
-5.9081 17.6830 0.9093 -4.4541 55.9739 0.6989 0.0000 0.0000 0.0000 -14.0145 -13.8406 -3.4028 1.1667 6.8568 19.2917 0.5866 6.9717 -18.6639 3.0752 -10.8159 -31.6613 0.0000 0.0000 0.0000 17.6424 13.1266 6.4207 0.0000 -0.0000 0.0000 0.7481 -15.1712 -7.1903 -1.3080 7.2447 -20.4424 0.3417 0.8337 2.2756 0.1469 1.1462 -2.8344 -0.1078 0.5672 -4.1910 -1.2674 -0.9708 -23.3246 3.8656 -1.9929 32.8397 1.5064 -0.2752 15.5530 -0.0000 -0.0000 0.0000 4.1691 8.4685 -30.4758 22.1796 -33.1795 6.6839 35.2795 -4.15 -55.9234 0.0 0.0 0.0 -7.1250 0.0 0.0 174.7595 1.1775 -5.1534 -0.0000 -0.0000 0.0000 -5.1553 10.7003 13.1315 -14.3866 -23.2846 -2.9792 -20.6482 -1.1853 -18.0695 0.0 0.0 0.0 7.1250 0.0 -0.0 4.8456 10.812 3.8648
